<?xml version="1.0" encoding="utf-8"?>
<!-- Generator: Adobe Illustrator 25.2.1, SVG Export Plug-In . SVG Version: 6.00 Build 0)  -->
<svg version="1.1"
	 id="svg8" xmlns:cc="http://creativecommons.org/ns#" xmlns:dc="http://purl.org/dc/elements/1.1/" xmlns:inkscape="http://www.inkscape.org/namespaces/inkscape" xmlns:rdf="http://www.w3.org/1999/02/22-rdf-syntax-ns#" xmlns:sodipodi="http://sodipodi.sourceforge.net/DTD/sodipodi-0.dtd" xmlns:svg="http://www.w3.org/2000/svg"
	 xmlns="http://www.w3.org/2000/svg" xmlns:xlink="http://www.w3.org/1999/xlink" x="0px" y="0px" viewBox="0 0 987.8 168.1"
	 style="enable-background:new 0 0 987.8 168.1;" xml:space="preserve">
<style type="text/css">
	.st0{fill:#BCC4DB;stroke:#644536;stroke-width:3;stroke-linecap:round;stroke-linejoin:round;stroke-miterlimit:11.3386;}
	.st1{fill:#F3DFA2;stroke:#000000;stroke-miterlimit:11.3386;}
	.st2{fill:#F3DFA2;stroke:#000000;stroke-linecap:round;stroke-linejoin:round;stroke-miterlimit:11.3386;}
	.st3{fill:#345995;stroke:#000000;stroke-width:0.6456;stroke-linecap:round;stroke-linejoin:round;stroke-miterlimit:11.3386;}
	.st4{fill:#A7754D;}
	.st5{font-family:'Candara';}
	.st6{font-size:100px;}
	.st7{fill:#644536;stroke:#644536;stroke-width:3;stroke-miterlimit:10;}
	.st8{fill:#644536;}
</style>
<sodipodi:namedview  bordercolor="#666666" borderopacity="1.0" fit-margin-bottom="5" fit-margin-left="5" fit-margin-right="5" fit-margin-top="5" id="base" inkscape:current-layer="text12" inkscape:cx="248.45962" inkscape:cy="77.454223" inkscape:document-rotation="0" inkscape:document-units="mm" inkscape:pageopacity="1" inkscape:pageshadow="2" inkscape:window-height="986" inkscape:window-maximized="1" inkscape:window-width="1920" inkscape:window-x="-11" inkscape:window-y="49" inkscape:zoom="1.6076602" lock-margins="true" pagecolor="#ffffff" showgrid="false">
	<inkscape:grid  id="grid73" originx="-75.803673" originy="-69.669415" type="xygrid"></inkscape:grid>
</sodipodi:namedview>
<g>
	<ellipse id="path995" class="st0" cx="198.9" cy="84.1" rx="79.9" ry="78.4"/>
	<path id="path211" sodipodi:nodetypes="sssssssssssssssssssssssssssssss" class="st1" d="M189.8,55.1c4.5-0.8,3.1-7-4.3-4.5
		c-10.6,3.6-15,10.9-19.4,19.8c-0.4,0.8-3.3,0.4-3.2-0.6c1-5.1,3.3-8.1,5.9-12.1c5.2-7.9,12.5-12.2,20.5-15.5c5.7-2.4,2-7.2-3.4-5.2
		c-11.7,4.2-14.8,9.7-20.1,16.4c-0.5,0.7-4.1-1.1-3.7-1.9c3.2-7.4,6.1-10.9,12.8-14c4.2-1.9,0.4-5.3-2.2-4.1
		c-9.1,4.2-13.5,12.4-17.6,19.1c-4.1,6.7-6.1,12.3-7.7,21c-1.2,6.7-0.8,11.2,0.3,18.8c0.8,5.1,6.2,8.9,5,2.8
		c-1.2-6.1-1.7-11.9-0.7-17.7c1.6-9.9,3.2-14.7,6.7-20.4c1.8-2.9,5-1.2,3.4,1.5c-2.5,4.3-2.7,6-4.5,11.7c-1.8,5.6-1.8,9.1-1.9,13.5
		c-0.2,6.2,0,17.7,7.7,27.6c1.7,2.3,7.2,1.1,3.9-2.9c-3.6-4.4-6.5-9.8-7.2-19.9c-0.3-5.2,1.5-12.4,1.5-12.4c0.8-0.8,4.5-1,4,0
		c-3.1,5.6-1.6,20.9,3.9,28.1c3.6,4.7,8.3,8.9,13.8,11.3c4.7,2,8.4-2.9,3.3-5c-5.2-2.1-10.2-4.8-12.9-9.4
		c-4.7-7.9-6.3-18.5-3.6-27.2C172.9,64.7,181.8,56.5,189.8,55.1L189.8,55.1z"/>
	<path id="path211-3" sodipodi:nodetypes="ssssssssssssssssssssssssssssssss" class="st1" d="M209,111.3c-4.1,2.1-1.3,5.8,3.5,4.2
		c14.9-5.1,20-20.5,21.1-30.3c0.1-0.9,3-1.5,3.2-0.6c0.8,5.1-0.3,8.7-1.4,13.4c-2.2,9.3-7.6,15.8-13.9,21.6c-4.6,4.2,0.6,7.4,5,3.7
		c9.5-7.9,10.6-14.1,13.3-22.2c0.3-0.8,4.2-0.3,4.1,0.5c-0.4,8-2,12.4-7.2,17.6c-3.3,3.3,1.4,5.2,3.5,3.1c7.1-7.1,8.4-16.3,10-24
		c1.5-7.7,1.5-13.6,0-22.4c-1.1-6.7-3-10.8-6.7-17.6c-2.5-4.6-8.8-6.3-5.6-0.9c3.2,5.3,5.6,10.6,6.7,16.4c1.8,9.8,2,14.9,0.6,21.4
		c-0.7,3.3-4.3,2.9-3.7-0.2c0.8-4.9,0.5-6.6,0.3-12.5c-0.3-5.9-1.4-9.2-2.8-13.3c-2-5.9-6-16.6-16.7-23.3c-2.4-1.5-7.1,1.4-2.6,4
		c4.9,2.9,9.4,7,13.5,16.3c2.1,4.8,2.8,12.1,2.8,12.1c-0.5,1-3.9,2.5-3.7,1.4c1-6.3-5.7-20.2-13.2-25c-5-3.2-5.4-3.5-11-5.8
		c-4.8-1.9-4.1,4.9-1.4,5.8c5.2,1.7,5.3,1.1,9.6,4.2c7.4,5.4,12.3,15.2,12.7,24.4c0.4,9.6-6.2,21.3-13.4,24.9L209,111.3z"/>
	<circle id="path970" class="st2" cx="206.3" cy="23.3" r="5.7"/>
	<circle id="path970-4" class="st2" cx="180" cy="128.2" r="6.8"/>
	<circle id="path970-9" class="st2" cx="197.3" cy="142.2" r="6.9"/>
	<circle id="path993" class="st3" cx="198.6" cy="83.7" r="24.9"/>
	
		<ellipse id="path64" transform="matrix(0.4959 -0.8684 0.8684 0.4959 87.1678 220.2709)" class="st4" cx="233.3" cy="35.1" rx="7.4" ry="12.5"/>
	<path id="path249-3-1" sodipodi:nodetypes="ssssssscssccsscsscsscs" d="M226.4,25.1c-4.2,1.5-6.4,6.2-4.8,10.4
		c1.5,4.2,14.4,11.3,18.6,9.8c4.2-1.5,6.7-6.3,4.8-10.4C242.1,28.4,230.6,23.6,226.4,25.1L226.4,25.1z M227.1,27.1
		c1.7-0.6,4.8,0.2,8.4,2.3c-0.8,1.6-1.4,2.6-1.9,3.4c-0.9,1.5,0.5,2.7,1.6,0.9c0.5-0.8,1.2-1.9,2-3.4c2.8,1.7,4.9,3.8,5.7,5.3
		c1.6,2.9-0.5,6.5-3.6,7.6c-0.6,0.2-1.5,0.2-2.5-0.1c1-1.7,0.9-1.9,1.9-3.5c1-1.6-0.6-2.2-1.5-0.7c-0.6,1-1,1.9-1.9,3.8
		c-2.6-0.9-5.8-2.6-8.2-4.3c0.9-1.7,1.6-2.8,2.1-3.7c1.1-1.6-0.4-2.4-1.4-0.8c-0.6,0.9-1.2,2.1-2.1,3.5c-1.1-0.9-1.9-1.8-2.2-2.5
		C222.5,31.6,224,28.3,227.1,27.1L227.1,27.1z"/>
	
		<ellipse id="path64-1" transform="matrix(0.7339 -0.6792 0.6792 0.7339 -38.4695 131.2909)" class="st4" cx="148.4" cy="114.7" rx="7.4" ry="12.5"/>
	<path id="path249-3" sodipodi:nodetypes="ssssssscssccsscsscsscs" d="M145.4,103.3c-4.5,0-8.1,3.6-8.1,8.1
		c0,4.5,9.7,15.5,14.2,15.5c4.5,0,8.5-3.7,8.1-8.1C159.1,111.9,149.9,103.3,145.4,103.3L145.4,103.3z M145.4,105.5
		c1.8,0,4.4,1.9,7.1,5c-1.3,1.3-2.2,2-2.9,2.5c-1.4,1.1-0.4,2.7,1.2,1.4c0.7-0.6,1.8-1.3,3.1-2.5c2,2.5,3.3,5.2,3.6,6.9
		c0.5,3.2-2.6,5.9-5.9,5.9c-0.6,0-1.4-0.4-2.4-1c1.5-1.3,1.5-1.4,3-2.6c1.4-1.2,0.2-2.2-1.1-1.2c-1,0.8-1.6,1.4-3.1,2.9
		c-2.1-1.7-4.5-4.4-6.2-6.8c1.4-1.3,2.4-2.1,3.2-2.7c1.6-1.1,0.4-2.4-1-1.3c-0.8,0.7-1.9,1.6-3.1,2.5c-0.7-1.3-1.2-2.4-1.2-3.1
		C139.5,108.1,142.2,105.5,145.4,105.5L145.4,105.5z"/>
	
		<ellipse id="path64-7" transform="matrix(0.835 -0.5502 0.5502 0.835 -39.5453 147.6858)" class="st4" cx="226.5" cy="139.8" rx="12.5" ry="7.4"/>
	<path id="path249-3-8" sodipodi:nodetypes="ssssssscssccsscsscsscs" d="M214.5,141.9c-0.4,4.4,2.9,8.4,7.4,8.8
		c4.4,0.4,16.3-8.3,16.7-12.7c0.4-4.4-2.9-8.7-7.4-8.8C224.2,129.1,214.9,137.5,214.5,141.9L214.5,141.9z M216.7,142.1
		c0.2-1.8,2.2-4.2,5.6-6.6c1.2,1.4,1.8,2.4,2.3,3.1c1,1.5,2.7,0.6,1.5-1.1c-0.5-0.8-1.2-1.9-2.2-3.3c2.7-1.8,5.5-2.9,7.2-3
		c3.3-0.2,5.7,3.2,5.4,6.4c-0.1,0.6-0.5,1.4-1.2,2.3c-1.1-1.6-1.3-1.6-2.3-3.2c-1.1-1.5-2.2-0.4-1.3,1c0.7,1,1.3,1.7,2.6,3.3
		c-1.9,2-4.8,4.1-7.3,5.6c-1.1-1.6-1.9-2.6-2.4-3.5c-1-1.6-2.4-0.6-1.4,0.9c0.6,0.9,1.4,2,2.2,3.4c-1.3,0.6-2.5,1-3.2,0.9
		C218.8,148.2,216.4,145.4,216.7,142.1L216.7,142.1z"/>
</g>
<text transform="matrix(1 0 0 1 290.0824 111.9334)" class="st5 st6">GALA de PABLO</text>
<line class="st7" x1="129" y1="33" x2="65.1" y2="5.6"/>
<line class="st7" x1="116.2" y1="49.9" x2="12.8" y2="8.1"/>
<line class="st7" x1="112.8" y1="67.1" x2="12.8" y2="51.8"/>
<line class="st7" x1="112.8" y1="89.7" x2="12.8" y2="93.7"/>
<line class="st7" x1="116.2" y1="108.6" x2="12.8" y2="131.3"/>
<line class="st7" x1="121.4" y1="124.8" x2="12.8" y2="160"/>
<line class="st7" x1="129" y1="138" x2="80.4" y2="161.2"/>
<circle class="st8" cx="13.5" cy="7.4" r="6.4"/>
<circle class="st8" cx="12.8" cy="51.8" r="7.1"/>
<circle class="st8" cx="14.3" cy="93.2" r="8.5"/>
<circle class="st8" cx="12.8" cy="131.3" r="7.1"/>
<circle class="st8" cx="13.9" cy="159" r="6"/>
<circle class="st8" cx="80.2" cy="161.2" r="6"/>
<circle class="st8" cx="68.5" cy="7" r="5.7"/>
</svg>
